<svg xmlns="http://www.w3.org/2000/svg" viewBox="0 0 360 96" role="img" aria-labelledby="title desc">
  <title id="title">Crestron logo</title>
  <desc id="desc">Stylised Crestron logomark followed by the company name</desc>
  <g fill="none" fill-rule="evenodd">
    <path fill="#0061a6" d="M16 48c0-21.1 44.3-38 98.5-38 27.4 0 47.5 6.7 47.5 18.2 0 9.7-14 16.5-39.1 17.8 27 1.2 39.1 7.1 39.1 17.7 0 10.5-20.3 18.3-47.5 18.3C60.4 82 16 69.1 16 48Z"/>
    <path fill="#f4f9fc" fill-opacity=".92" d="M33.2 48c0-13.3 30.7-24 66.9-24 19.7 0 33 4.2 33 11.4 0 7.2-11.2 11-31.1 11.5 19.9.4 31.1 4.6 31.1 11.5 0 7.1-13.4 11.4-33 11.4-36.2 0-66.9-10.7-66.9-23.8Z"/>
    <path fill="#0061a6" d="M60.1 48c0-7.4 17.1-12.7 39.1-12.7 11.6 0 19.3 2.4 19.3 6.4 0 3.9-6.2 5.9-17.6 6.3 11.4.3 17.6 2.4 17.6 6.3 0 4-7.7 6.4-19.3 6.4-22 0-39.1-5.3-39.1-12.7Z"/>
  </g>
  <text x="190" y="64" fill="#003962" font-family="'Segoe UI', 'Helvetica Neue', Arial, sans-serif" font-size="38" font-weight="700" letter-spacing="2" text-anchor="middle">CRESTRON</text>
</svg>
